<?xml version="1.0" encoding="utf-8"?>
<!-- Generator: Adobe Illustrator 23.0.4, SVG Export Plug-In . SVG Version: 6.00 Build 0)  -->
<svg version="1.1" id="Layer_1" xmlns="http://www.w3.org/2000/svg" xmlns:xlink="http://www.w3.org/1999/xlink" x="0px" y="0px"
	 viewBox="0 0 1920 1080" style="enable-background:new 0 0 1920 1080;" xml:space="preserve">
<style type="text/css">
	.st0{opacity:0.1;fill:#20209E;enable-background:new    ;}
	.st1{fill:#FFFFFF;}
	.st2{fill:none;stroke:#3F3D56;stroke-width:2;stroke-miterlimit:10;}
	.st3{fill:#20209E;}
	.st4{fill:#3F3D56;}
	.st5{fill:#575A89;}
	.st6{fill:#7B5050;}
	.st7{fill:#2F2E41;}
</style>
<g id="Group_155" transform="translate(-855.974 -2620.781)">
	<path id="Path_740" class="st0" d="M1423.36,2967.6c16.54-16.95,41.68-25.9,66.21-32.46l4.13-1.08
		c25.64-6.64,51.77-11.48,78.07-15.53c14.07-2.18,28.16-4.15,42.26-6.08l11.05-1.5c14.35-1.95,28.72-3.89,43.12-5.82
		c14.1-1.89,28.21-3.76,42.31-5.61c18.07-2.35,36.14-4.63,54.23-6.84c14.12-1.72,28.25-3.36,42.38-4.94
		c18.11-2.02,36.23-3.89,54.35-5.64c14.17-1.35,28.34-2.59,42.51-3.73c18.17-1.45,36.36-2.68,54.56-3.69
		c12.35-0.7,24.71-1.27,37.07-1.72l5.63-0.19c53.08-1.76,107.43-0.61,155.8,16.05l1.3,0.46c0.65,0.23,1.3,0.45,1.95,0.69
		c8.89,3.15,17.5,7.05,25.74,11.65c14.66,8.28,27.16,18.97,34.6,32.41c11.65,21.1,9.34,46.43,0.97,69.15
		c-8.37,22.71-22.3,43.88-33.97,65.67c-3.42,6.38-6.61,12.97-9.51,19.68c-18.14,42.09-24.37,89.23,3.09,125.04
		c3.61,4.56,7.44,8.92,11.49,13.09c6.49,6.84,13.09,13.67,17.88,21.5c11.17,18.21,11.48,39.98,10.31,60.82
		c-1.59,27.71-6.69,57.91-30.48,77.63c-24.69,20.48-62.47,23.56-96.1,20.68c-52.27-4.41-101.73-19.97-151.43-33.47
		c-49.69-13.5-101.49-25.17-154.17-21.46c-11.32,0.8-22.57,2.41-33.66,4.8l0,0c-14.79,3.11-29.22,7.78-43.03,13.91
		c-19.94,8.98-37.66,21.2-50.09,36.9c-26.68,33.56-82.6,41.79-125.03,27.7c-40.49-13.45-69.4-47.89-71.46-85.13
		c-2.25-41.45,25.05-78.61,49.67-116.37c2.99-4.58,5.93-9.16,8.78-13.77c1.59-2.57,3.15-5.14,4.67-7.72l0,0
		c2.66-4.54,5.21-9.09,7.59-13.68c12.14-23.51,19.57-50.99,7.12-73.67c-6.99-12.7-18.71-21.71-32.48-29.21
		c-30.86-16.79-71.98-25.94-92.78-51.8C1400.08,3022.03,1402.38,2989.14,1423.36,2967.6z"/>
	<g id="Group_28" transform="translate(1005 2747.743)">
		<rect id="Rectangle_134" x="702.84" y="240.84" class="st1" width="151.09" height="165.71"/>
		<rect id="Rectangle_135" x="718.07" y="225" class="st2" width="151.09" height="165.71"/>
		<rect id="Rectangle_136" x="725.99" y="372.02" class="st3" width="8.15" height="8.15"/>
		<rect id="Rectangle_137" x="737.76" y="372.02" class="st4" width="8.15" height="8.15"/>
		<rect id="Rectangle_138" x="749.52" y="372.02" class="st5" width="8.15" height="8.15"/>
		<rect id="Rectangle_139" x="817.38" y="375.56" class="st4" width="31.68" height="1.28"/>
		<rect id="Rectangle_140" x="817.38" y="379.41" class="st4" width="31.68" height="1.28"/>
		<rect id="Rectangle_141" x="817.38" y="383.26" class="st4" width="31.68" height="1.28"/>
		<path id="Path_572" class="st4" d="M793.62,254.24v13.4c22.21,0,40.21,18,40.21,40.21c0,10.66-4.24,20.89-11.78,28.43l9.48,9.48
			c20.94-20.94,20.93-54.88,0-75.82C821.47,259.89,807.83,254.24,793.62,254.24z"/>
		<path id="Path_573" class="st5" d="M831.52,345.77l-9.48-9.48c-14.22,14.22-36.75,15.75-52.76,3.58l-8.11,10.67
			C782.52,366.76,812.56,364.72,831.52,345.77L831.52,345.77z"/>
		<path id="Path_574" class="st3" d="M753.41,307.86c0-22.21,18-40.21,40.21-40.21v-13.4c-29.61,0-53.61,24-53.62,53.61
			c0,16.76,7.83,32.55,21.18,42.69l8.11-10.67C759.27,332.28,753.4,320.43,753.41,307.86z"/>
		<path id="Path_575" class="st1" d="M894.22,575.86c-16.86,0-30.54-13.67-30.54-30.54v-35.57c0-71.16,57.69-128.85,128.85-128.85
			c0,0,0,0,0,0l0,0c71.16,0,128.85,57.69,128.85,128.85c0,0,0,0,0,0v27.96c0,21.07-17.08,38.14-38.14,38.14"/>
		<path id="Path_576" class="st4" d="M1096.04,614.25v-1.22c20.72-0.02,37.51-16.81,37.53-37.53v-73.04
			c0-70.83-57.42-128.25-128.25-128.25s-128.25,57.42-128.25,128.25v80.65c0.02,16.52,13.41,29.91,29.93,29.93v1.22
			c-17.19-0.02-31.13-13.95-31.15-31.15v-80.65c-0.03-71.5,57.91-129.49,129.41-129.52c71.5-0.03,129.49,57.91,129.52,129.41
			c0,0.04,0,0.08,0,0.11v73.04C1134.77,596.88,1117.43,614.22,1096.04,614.25z"/>
		<rect id="Rectangle_142" x="875.26" y="567.33" class="st4" width="260.15" height="107.23"/>
		
			<rect id="Rectangle_143" x="1026.26" y="463.13" transform="matrix(0.815 -0.5794 0.5794 0.815 -84.5226 691.9485)" class="st3" width="30.46" height="30.46"/>
		
			<rect id="Rectangle_144" x="1028.26" y="456.47" transform="matrix(0.815 -0.5794 0.5794 0.815 -80.2981 691.8756)" class="st2" width="30.46" height="30.46"/>
		<circle id="Ellipse_68" class="st3" cx="998.93" cy="432.69" r="12.79"/>
		<circle id="Ellipse_69" class="st2" cx="995.28" cy="430.86" r="12.79"/>
		<path id="Path_577" class="st3" d="M961.12,483.82l15.31,8.81l15.31,8.81l-15.29,8.85l-15.29,8.85l-0.02-17.67L961.12,483.82z"/>
		<path id="Path_578" class="st2" d="M958.66,490.51l15.31,8.81l15.31,8.81l-15.29,8.85l-15.29,8.85l-0.02-17.67L958.66,490.51z"/>
		<path id="Path_579" class="st1" d="M898.67,455.12c4.71-16.83,17.35-30.31,33.85-36.08c2.21-0.76,1.26-4.29-0.97-3.52
			c-17.72,6.14-31.32,20.57-36.4,38.63c-0.24,0.98,0.36,1.97,1.34,2.21C897.43,456.59,898.39,456.05,898.67,455.12L898.67,455.12z"
			/>
		<path id="Path_580" class="st1" d="M891.74,475.09c1.01-0.04,1.79-0.89,1.75-1.9c-0.04-0.95-0.8-1.71-1.75-1.75
			c-1.01,0.04-1.79,0.89-1.75,1.9C890.02,474.29,890.79,475.05,891.74,475.09z"/>
		
			<rect id="Rectangle_145" x="663.85" y="433.3" transform="matrix(0.3025 -0.9532 0.9532 0.3025 47.1014 990.671)" class="st1" width="73.11" height="59.71"/>
		
			<rect id="Rectangle_146" x="701.68" y="427.73" transform="matrix(0.3025 -0.9532 0.9532 0.3025 71.0375 975.968)" class="st4" width="1.3" height="23.44"/>
		
			<rect id="Rectangle_147" x="706.04" y="426.29" transform="matrix(0.3025 -0.9532 0.9532 0.3025 70.3674 982.845)" class="st4" width="1.3" height="34.12"/>
		
			<rect id="Rectangle_148" x="699.2" y="435.52" transform="matrix(0.3025 -0.9532 0.9532 0.3025 61.88 979.0486)" class="st4" width="1.3" height="23.44"/>
		
			<rect id="Rectangle_149" x="696.31" y="444.65" transform="matrix(0.3025 -0.9532 0.9532 0.3025 51.1594 982.6555)" class="st4" width="1.3" height="23.44"/>
		
			<rect id="Rectangle_150" x="703.57" y="434.08" transform="matrix(0.3025 -0.9532 0.9532 0.3025 61.2098 985.9257)" class="st4" width="1.3" height="34.12"/>
		
			<rect id="Rectangle_151" x="702.84" y="436.37" transform="matrix(0.3025 -0.9532 0.9532 0.3025 58.5297 986.8274)" class="st4" width="1.3" height="34.12"/>
		
			<rect id="Rectangle_152" x="702.12" y="438.65" transform="matrix(0.3025 -0.9532 0.9532 0.3025 55.8496 987.7291)" class="st4" width="1.3" height="34.12"/>
		
			<rect id="Rectangle_153" x="687.87" y="455.06" transform="matrix(0.3025 -0.9532 0.9532 0.3025 41.4045 978.9755)" class="st3" width="3.39" height="12.27"/>
		<ellipse id="Ellipse_70" class="st4" cx="621.81" cy="675.32" rx="79.81" ry="10.36"/>
		<path id="Path_581" class="st3" d="M584.11,388.6l-2.65,6.3l2.98,40.76c0,0-1.66,2.32,0,3.98s1.33,2.32,1.33,2.32
			s-2.65,0-1.33,1.99c0.69,0.86,1.15,1.89,1.33,2.98l-0.66,1.99c0.7,0.86,1.16,1.89,1.33,2.98c0,1.33,8.62,42.09,8.62,42.09
			l8.29-16.24l-4.65-64.63L584.11,388.6z"/>
		<path id="Path_582" class="st6" d="M669.19,492.25c0,0,18.09-0.73,23.86,5.65c5.77,6.38-22.67,1.77-24.27-0.03
			C667.17,496.07,669.19,492.25,669.19,492.25z"/>
		<path id="Path_583" class="st7" d="M579.8,653.05l-3.65,11.93c0,0-5.3,11.6,1.99,13.26s14.25-4.64,14.25-4.64v-7.95l2.65-12.59
			L579.8,653.05z"/>
		<path id="Path_584" class="st7" d="M639.46,653.05c0,0-1.66,22.53,1.99,23.86s16.57,1.66,16.9,0c0.33-1.66,4.31-3.31,1.33-5.63
			c-2.98-2.32-4.97-15.91-4.97-15.91L639.46,653.05z"/>
		<path id="Path_585" class="st7" d="M605.98,439.63v9.94c0,0-10.94,22.87-14.91,58.99s-17.56,146.14-14.25,148.13
			c3.31,1.99,39.1,3.31,40.1,0.66s1.99-80.2,1.99-80.2l12.26-54.68c0,0,2.32,19.55,4.31,22.87s-3.31,111.02,0,112.67
			c3.31,1.66,48.05,4.64,47.39-0.66c-0.66-5.3-15.57-149.12-15.57-149.12s-7.62-67.93-9.94-68.6s-23.53-1.33-26.84-0.66
			C627.2,439.63,605.98,439.63,605.98,439.63z"/>
		<circle id="Ellipse_71" class="st6" cx="631.17" cy="338.56" r="18.89"/>
		<path id="Path_586" class="st6" d="M635.15,354.46c0,0-9.61,14.91-7.29,18.89c2.32,3.98-24.52-3.98-24.52-3.98
			s16.24-19.88,15.91-22.2S635.15,354.46,635.15,354.46z"/>
		<path id="Path_587" class="st3" d="M655.03,376.67c0,0-17.56-5.63-19.88-7.95c-1.49-1.52-2.82-3.19-3.98-4.97
			c0,0-21.21-2.98-21.87-2.98c-0.66,0-5.63,5.96-6.96,7.29s-18.23,10.27-18.23,12.59s-2.65,14.25-2.65,14.25s5.97,12.26,9.61,14.91
			c3.64,2.65,4.64,1.99,4.97,6.3c0.33,4.31,4.97,11.27,4.97,11.27s2.98,7.62,2.32,9.94c-0.66,2.32-3.65,4.31,3.31,3.64
			c6.96-0.66,41.42,1.33,41.42-2.32s-6.63-38.44-6.63-38.44L655.03,376.67z"/>
		<path id="Path_588" class="st3" d="M648.73,377.33l6.3-0.66c0,0,2.32,1.33,2.65,14.25s0.33,44.08,2.65,46.73
			s11.93,43.74,11.93,43.74s2.65,0.66,2.65,2.98s2.98,4.31,1.66,6.96s1.33,1.99-0.33,3.64s-9.61,4.97-9.94,2.98
			c-0.33-1.99,0.99-2.32-0.33-2.98c-1.33-0.66-1.33-0.99-1.66-3.31c-0.33-2.32-3.31-4.64-2.98-5.63s-14.58-29.83-14.58-30.82
			s-0.99-4.64-2.32-5.3c-1.33-0.66-3.31-1.33-2.32-2.98c0.99-1.66-2.65-51.37-2.65-51.37L648.73,377.33z"/>
		<path id="Path_589" class="st7" d="M647.14,326.58c-5.79-6.29-14.89-9.62-23.23-7.76c-8.34,1.87-15.37,9.28-16.02,17.8
			c0,1.75-0.16,3.49-0.47,5.21c-0.76,2.84-3.02,5.09-3.81,7.93c-0.53,1.9-0.38,3.94-0.94,5.83c-1.04,3.49-4.28,5.76-6.74,8.44
			c-1,0.98-1.74,2.19-2.16,3.53c-0.22,1.18-0.27,2.39-0.16,3.59c0.1,6.46-2.3,12.72-6.71,17.45c2.59-1.93,5.39-3.55,8.34-4.85
			c-1.5,4.78-0.11,9.99,3.56,13.39c3.82,3.28,9.36,3.64,13.57,0.88c2.37-1.68,3.9-4.27,5.37-6.77l5.56-9.49
			c0.89-1.79,2.14-3.37,3.66-4.65c1.28-0.93,2.83-1.43,4.11-2.35c3.24-2.32,4.11-6.86,3.51-10.8s-2.38-7.6-3.39-11.45
			c-0.8-3.05-1.06-6.54,0.75-9.13c2.4-3.43,7.33-3.87,10.6-6.49c1.05-1,1.95-2.16,2.66-3.43c0.81-1.14,1.02-0.73,2.28-0.78
			C650.94,332.54,648.42,327.97,647.14,326.58z"/>
		<ellipse id="Ellipse_72" class="st6" cx="630.65" cy="345.11" rx="1.52" ry="3.65"/>
		<circle id="Ellipse_73" class="st1" cx="798.49" cy="589.27" r="19.5"/>
		<circle id="Ellipse_74" class="st1" cx="603.53" cy="254.18" r="19.5"/>
		<circle id="Ellipse_75" class="st1" cx="1011.72" cy="299.88" r="19.5"/>
	</g>
</g>
</svg>
