<?xml version="1.0" encoding="utf-8"?>
<!-- Generator: Adobe Illustrator 23.0.4, SVG Export Plug-In . SVG Version: 6.00 Build 0)  -->
<svg version="1.1" id="Layer_1" xmlns="http://www.w3.org/2000/svg" xmlns:xlink="http://www.w3.org/1999/xlink" x="0px" y="0px"
	 viewBox="0 0 1920 1080" style="enable-background:new 0 0 1920 1080;" xml:space="preserve">
<style type="text/css">
	.st0{opacity:0.1;fill:#20209E;enable-background:new    ;}
	.st1{opacity:0.5;}
	.st2{fill:url(#Rectangle_279_1_);}
	.st3{fill:#F2F2F2;}
	.st4{fill:#5555B5;}
	.st5{fill:#E0E0E0;}
	.st6{fill:none;stroke:#000000;stroke-width:1.5;}
	.st7{fill:url(#Rectangle_289_1_);}
	.st8{fill:#0E0E52;}
	.st9{fill:url(#Rectangle_299_1_);}
	.st10{fill:#FFFFFF;}
	.st11{fill:#20209E;}
	.st12{fill:#F5F5F5;}
	.st13{fill:#3F3D56;}
	.st14{fill:#514E7F;}
	.st15{fill:#464353;}
	.st16{opacity:0.1;enable-background:new    ;}
	.st17{fill:#33323D;}
	.st18{fill:#8DD070;}
	.st19{opacity:0.2;enable-background:new    ;}
	.st20{fill:#504F60;}
</style>
<g id="Group_156" transform="translate(-69.571 -3271.422)">
	<path id="Path_776" class="st0" d="M767.49,3652.74c14.54-33.71,51.44-56.43,87.76-71.23c114.11-46.47,239.88-39.56,355.36-19.27
		c41.81,7.34,83.92,16.63,118.54,37.45c70.51,42.36,98.04,133.75,63.86,211.68c-11.63,26.51-29.32,50.96-48.37,74.14
		c-33.85,41.27-73.07,80.02-120.32,107.89c-33.71,19.86-70.73,33.76-108.04,45.35c-104.24,32.41-214.18,47.88-318.28,35.21
		c-45.68-5.62-91.81-17.47-123.03-46.36s-42.98-78.47-16.71-116.43c10.86-15.7,26.89-27.99,42.65-39.83
		c23.2-17.46,46.85-35.03,64.91-56.96c18.65-22.64,36.73-58.03,20.16-81.15C768.23,3708.42,752.99,3686.43,767.49,3652.74z"/>
	<g id="Group_92" transform="translate(-35 -30)">
		<g id="Group_70" transform="translate(331.833 3473.698)">
			<g id="Group_67" class="st1">
				
					<linearGradient id="Rectangle_279_1_" gradientUnits="userSpaceOnUse" x1="-226.1951" y1="908.3016" x2="-226.1951" y2="909.3016" gradientTransform="matrix(242.468 0 0 -199.156 55426.2969 181212.8594)">
					<stop  offset="0" style="stop-color:#808080;stop-opacity:0.251"/>
					<stop  offset="0.54" style="stop-color:#808080;stop-opacity:0.122"/>
					<stop  offset="1" style="stop-color:#808080;stop-opacity:0.102"/>
				</linearGradient>
				<rect id="Rectangle_279" x="460" y="120" class="st2" width="242.47" height="199.16"/>
			</g>
			<rect id="Rectangle_280" x="462.83" y="123.77" class="st3" width="236.35" height="192.09"/>
			<rect id="Rectangle_281" x="462.83" y="123.77" class="st4" width="236.35" height="42.85"/>
			<path id="Path_670" class="st5" d="M481.66,182.15h198.68v24.95H481.66V182.15z"/>
			<rect id="Rectangle_349" x="466.83" y="116.77" class="st6" width="239.35" height="192.09"/>
			<rect id="Rectangle_284" x="481.66" y="225.93" class="st5" width="145.01" height="8.48"/>
			<rect id="Rectangle_285" x="481.66" y="240.53" class="st5" width="94.16" height="8.48"/>
			<rect id="Rectangle_286" x="481.66" y="255.12" class="st5" width="124.29" height="8.48"/>
			<rect id="Rectangle_287" x="481.66" y="269.72" class="st5" width="145.01" height="8.48"/>
			<rect id="Rectangle_288" x="481.66" y="284.31" class="st5" width="48.49" height="8.48"/>
			<g id="Group_68" transform="translate(309.294)" class="st1">
				
					<linearGradient id="Rectangle_289_1_" gradientUnits="userSpaceOnUse" x1="-535.4891" y1="907.9866" x2="-535.4891" y2="908.9866" gradientTransform="matrix(242.468 0 0 -199.156 130420.1953 181212.8594)">
					<stop  offset="0" style="stop-color:#808080;stop-opacity:0.251"/>
					<stop  offset="0.54" style="stop-color:#808080;stop-opacity:0.122"/>
					<stop  offset="1" style="stop-color:#808080;stop-opacity:0.102"/>
				</linearGradient>
				<rect id="Rectangle_289" x="460" y="120" class="st7" width="242.47" height="199.16"/>
			</g>
			<rect id="Rectangle_290" x="772.59" y="123.76" class="st3" width="236.35" height="192.09"/>
			<rect id="Rectangle_291" x="772.59" y="123.76" class="st8" width="236.35" height="42.85"/>
			<rect id="Rectangle_292" x="777.59" y="123.76" class="st0" width="236.35" height="42.85"/>
			<rect id="Rectangle_293" x="791.43" y="182.15" class="st5" width="198.68" height="24.95"/>
			<rect id="Rectangle_294" x="845.1" y="225.93" class="st5" width="145.01" height="8.48"/>
			<rect id="Rectangle_295" x="895.94" y="240.53" class="st5" width="94.16" height="8.48"/>
			<rect id="Rectangle_350" x="782.59" y="129.76" class="st6" width="236.35" height="192.09"/>
			<rect id="Rectangle_296" x="865.81" y="255.12" class="st5" width="124.29" height="8.48"/>
			<rect id="Rectangle_297" x="845.1" y="269.72" class="st5" width="145.01" height="8.48"/>
			<rect id="Rectangle_298" x="941.61" y="284.31" class="st5" width="48.49" height="8.48"/>
			<g id="Group_69" transform="translate(125.04 86.892)" class="st1">
				
					<linearGradient id="Rectangle_299_1_" gradientUnits="userSpaceOnUse" x1="-351.1494" y1="821.2953" x2="-351.1494" y2="822.2953" gradientTransform="matrix(302.27 0 0 -248.275 106753.0547 204275.3594)">
					<stop  offset="0" style="stop-color:#808080;stop-opacity:0.251"/>
					<stop  offset="0.54" style="stop-color:#808080;stop-opacity:0.122"/>
					<stop  offset="1" style="stop-color:#808080;stop-opacity:0.102"/>
				</linearGradient>
				<rect id="Rectangle_299" x="460" y="120" class="st9" width="302.27" height="248.27"/>
			</g>
			<rect id="Rectangle_300" x="588.56" y="211.58" class="st10" width="294.64" height="239.47"/>
			<rect id="Rectangle_301" x="588.56" y="211.58" class="st11" width="294.64" height="53.41"/>
			<rect id="Rectangle_302" x="612.04" y="284.36" class="st12" width="247.69" height="31.11"/>
			<rect id="Rectangle_303" x="612.04" y="338.95" class="st5" width="180.77" height="10.56"/>
			<rect id="Rectangle_304" x="612.04" y="357.15" class="st5" width="117.39" height="10.56"/>
			<rect id="Rectangle_305" x="612.04" y="375.34" class="st5" width="154.95" height="10.56"/>
			<rect id="Rectangle_306" x="612.04" y="393.53" class="st5" width="180.77" height="10.56"/>
			<rect id="Rectangle_307" x="612.04" y="411.73" class="st5" width="60.45" height="10.56"/>
			<rect id="Rectangle_308" x="624.95" y="294.93" class="st13" width="70.43" height="9.39"/>
			<rect id="Rectangle_353" x="582.56" y="206.58" class="st6" width="294.64" height="239.47"/>
		</g>
		<g id="Group_63" transform="translate(271.933 3639.5)">
			<path id="Path_634" class="st11" d="M677.56,331.51c3.28,0.42,6.69,0.69,9.83-0.33c0.5-0.15,1.04-0.5,0.99-0.99
				c-0.03-0.18-0.11-0.35-0.22-0.5c-1.18-1.78-2.18-3.67-2.97-5.66c-0.03-0.1-0.1-0.19-0.18-0.26c-0.1-0.04-0.21-0.04-0.32,0
				c-1.45,0.38-2.7,1.32-4.14,1.72c-0.73,0.2-1.5,0.26-2.26,0.17c-0.65-0.07-1.55-0.61-2.14-0.54
				C676.48,327.29,677.3,329.3,677.56,331.51z"/>
			<path id="Path_635" class="st11" d="M739.63,326.03c2.16-1.48,4.41-3.04,5.68-5.34c0.09-0.14,0.14-0.3,0.15-0.46
				c-0.02-0.16-0.08-0.32-0.18-0.45c-1.22-1.93-2.78-3.62-4.62-4.98c-0.96,0.68-1.82,1.48-2.57,2.38c-0.54,0.57-2.05,1.48-2.06,2.36
				c0,0.49,0.57,1.07,0.84,1.48c0.36,0.53,0.7,1.08,1.03,1.63C738.59,323.73,739.17,324.85,739.63,326.03z"/>
			<path id="Path_636" class="st14" d="M690.42,338.14c0.04,0.51-0.1,1.02-0.4,1.44c-0.23,0.23-0.52,0.41-0.83,0.5
				c-4.59,1.64-9.9-0.41-14.48,1.21c-0.94,0.33-1.83,0.81-2.78,1.13c-1.13,0.34-2.29,0.54-3.47,0.61c-1.62,0.15-3.25,0.25-4.87,0.3
				c-1.23,0.09-2.47-0.02-3.67-0.32c-1.21-0.31-2.24-1.12-2.82-2.23c-0.25-0.49-0.3-1.06-0.14-1.59c0.07-0.18,0.17-0.35,0.3-0.49
				c0.31-0.35,0.67-0.64,1.08-0.88l1.69-1.09c0.79-0.56,1.65-1.02,2.56-1.36c0.67-0.22,1.38-0.31,2.05-0.5
				c2.37-0.69,4.18-2.57,5.87-4.38l2.3-2.45c0.22-0.27,0.49-0.49,0.8-0.64c0.32-0.11,0.66-0.14,0.99-0.09
				c2.23,0.16,4.39,0.88,6.26,2.1c0.48,0.36,1,0.67,1.54,0.91c1.45,0.42,3.01,0.23,4.32-0.53c0.59-0.32,0.46-0.5,0.71-1.06
				c0.25-0.56,0.85-0.93,1.38-0.41c0.16,0.18,0.27,0.39,0.33,0.62c0.35,1.68,0.45,3.39,0.31,5.1c-0.01,0.27,0.02,0.54,0.1,0.79
				c0.13,0.26,0.28,0.5,0.45,0.73c0.04,0.06,0.07,0.12,0.09,0.19C690.4,336.51,690.51,337.33,690.42,338.14L690.42,338.14z"/>
			<path id="Path_637" class="st15" d="M690.42,338.15c0.04,0.51-0.1,1.02-0.4,1.44c-0.23,0.23-0.52,0.41-0.83,0.5
				c-4.59,1.64-9.9-0.41-14.48,1.21c-0.94,0.33-1.83,0.81-2.78,1.13c-1.13,0.34-2.29,0.55-3.47,0.61c-1.62,0.15-3.25,0.25-4.87,0.3
				c-1.23,0.09-2.47-0.02-3.67-0.32c-1.21-0.31-2.24-1.12-2.82-2.23c-0.25-0.49-0.3-1.06-0.14-1.59c0.07-0.18,0.17-0.35,0.3-0.5
				c0.27,0.56,0.46,1.3,0.63,1.57c0.46,0.8,1.24,1.37,2.15,1.55c0.67,0.04,1.34-0.04,1.98-0.25c4.16-1.03,8.58-1.04,12.58-2.6
				c1.33-0.63,2.71-1.16,4.12-1.58c1.48-0.22,2.96-0.34,4.46-0.36c2.35-0.19,4.62-0.9,6.93-1.27
				C690.4,336.51,690.51,337.34,690.42,338.15L690.42,338.15z"/>
			<path id="Path_638" class="st14" d="M750.15,325.74c-0.34,1.74-1.23,3.32-2.53,4.52c-1.3,1.19-2.48,2.48-3.55,3.88
				c-1.19,1.82-1.72,4.07-3.27,5.6c-0.59,0.56-1.26,1.03-1.98,1.41c-0.81,0.48-1.66,0.87-2.55,1.17c-2.35,0.59-4.8,0.72-7.2,0.39
				c-0.78-0.01-1.56-0.16-2.29-0.44c-0.33-0.17-0.65-0.36-0.95-0.58c-0.6-0.37-1.11-0.88-1.48-1.48c-0.18-0.33-0.23-0.71-0.14-1.08
				c0.14-0.4,0.37-0.76,0.69-1.05c0.54-0.56,1.13-1.09,1.74-1.57c0.85-0.55,1.61-1.21,2.27-1.98c0.4-0.61,0.7-1.28,0.88-1.98
				c0.35-1.24,0.57-2.51,0.64-3.79c0-0.85,0.09-1.7,0.26-2.53c0.37-1.31,1.34-2.47,1.23-3.83c-0.04-0.19-0.03-0.4,0.05-0.58
				c0.12-0.14,0.28-0.24,0.46-0.28c0.76-0.3,1.55-0.49,2.37-0.55c0.83-0.06,1.63,0.26,2.2,0.86c0.34,0.41,0.56,0.99,1.05,1.15
				c0.25,0.07,0.5,0.08,0.75,0.03c1.23-0.01,2.44-0.38,3.47-1.06c0.9-0.8,1.42-1.95,1.44-3.15c0-0.45-0.2-0.92,0.5-0.99
				c0.53-0.07,0.94,0.5,1.21,0.84c1.06,1.23,1.84,2.67,2.32,4.22c0.14-0.05,0.29-0.08,0.44-0.08c0.63-0.01,1.22,0.3,1.58,0.81
				c0.39,0.64,0.55,1.4,0.43,2.14L750.15,325.74z"/>
			<path id="Path_639" class="st15" d="M750.14,325.73c-0.34,1.74-1.23,3.32-2.53,4.52c-1.3,1.19-2.48,2.48-3.55,3.88
				c-1.19,1.82-1.72,4.07-3.27,5.6c-0.59,0.56-1.26,1.03-1.98,1.41c-0.81,0.48-1.66,0.87-2.55,1.17c-2.35,0.59-4.8,0.72-7.2,0.39
				c-0.78-0.01-1.56-0.16-2.29-0.44c-0.33-0.17-0.65-0.36-0.95-0.58c-0.6-0.37-1.11-0.88-1.48-1.48c0.46-0.22,0.97-0.34,1.48-0.36
				c1.07,0.06,1.85,1.07,2.88,1.38c1.46,0.44,2.92-0.59,4.4-0.94c0.97-0.23,1.98-0.17,2.94-0.5c0.8-0.31,1.53-0.75,2.17-1.32
				c0.88-0.63,1.66-1.38,2.32-2.24c0.55-0.86,1.01-1.77,1.36-2.72c0.78-1.82,1.7-3.58,2.75-5.27c0.16-0.27,0.34-0.51,0.56-0.73
				c0.24-0.2,0.49-0.38,0.76-0.55c0.91-0.85,1.53-1.96,1.75-3.19c0.09-0.37,0.22-0.72,0.39-1.06c0.63-0.01,1.22,0.3,1.58,0.81
				C750.11,324.16,750.27,324.96,750.14,325.73z"/>
			<path id="Path_644" class="st15" d="M703.3,220.28"/>
			<path id="Path_646" class="st15" d="M669.44,246.5c0.65,2.48-0.29,5.08-1.06,7.53c-1.16,3.69-1.96,7.49-2.37,11.34
				c-0.05,0.98-0.25,1.95-0.58,2.87c-0.37,0.83-0.99,1.52-1.42,2.31c-1.17,2.07-1.14,4.59-0.89,6.96c0.17,1.56,0.42,3.11,0.73,4.65
				c0.38,1.88,0.85,3.84,0.3,5.67c0.92-0.2,1.55,0.99,1.48,1.93c-0.06,0.94-0.36,1.98,0.09,2.79c1.14,0.42,1.15,1.98,1.11,3.19
				c0.02,2.1,0.28,4.2,0.79,6.24c1.72,8.28,3.55,16.54,5.49,24.78c4.18,1.3,9.07,2.65,13.06,0.85c0.78-0.26,1.4-0.88,1.65-1.66
				c0.04-0.43-0.01-0.87-0.16-1.28l-1.89-6.88c-0.57-1.63-0.8-3.36-0.68-5.09c0.18-1.27,0.74-2.64,0.11-3.77
				c-0.21-0.39-0.55-0.69-0.8-1.05c-0.99-1.45-0.47-3.39-0.39-5.15c0.03-0.39,0-0.79-0.08-1.18c-0.14-0.45-0.32-0.89-0.56-1.29
				c-1.56-3.03-2.31-6.42-2.18-9.83c0.06-0.44,0-0.88-0.17-1.28c-0.12-0.17-0.23-0.34-0.32-0.52c-0.08-0.32-0.04-0.65,0.1-0.95
				c-0.57-0.43-1.08-0.93-1.52-1.48c1-0.62,1.31-1.94,0.69-2.94c-0.09-0.14-0.2-0.28-0.32-0.4c0.6-0.12,0.99-0.71,0.87-1.31
				c-0.05-0.23-0.17-0.44-0.34-0.6c-0.24-0.17-0.56-0.24-0.74-0.5c-0.27-0.37-0.05-0.88,0.17-1.27l1.15-2.08
				c0.86-1.55,1.05-3.47,1.98-4.95c1.25-2.21,2.27-4.54,3.05-6.96l3.33-9.19l2.24,1.95c0.75,0.57,1.37,1.28,1.84,2.1
				c0.32,0.81,0.52,1.65,0.6,2.52c0.82,4.99,3.96,9.32,5.12,14.23c0.16,1.11,0.52,2.19,1.06,3.18c0.22,0.29,0.42,0.59,0.6,0.91
				c0.16,0.49,0.25,1,0.25,1.51c0.21,2.03,1.29,3.88,2.97,5.05c1.1,0.76,2.47,1.28,3.07,2.48c0.12,0.37,0.29,0.73,0.5,1.05
				c0.53,0.64,1.69,0.72,1.92,1.52c0.13,0.45-0.11,0.99,0.14,1.39c0.14,0.18,0.33,0.33,0.55,0.41l3.22,1.61
				c3.6,1.8,5.45,5.94,8.1,8.96c0.92,0.98,1.73,2.06,2.43,3.21c1.15,2.05,1.68,4.63,3.62,5.94c0.52,0.27,1,0.62,1.41,1.05
				c0.61,0.8,0.39,1.93,0.44,2.94s0.83,2.21,1.79,1.91c-0.34,1.22-0.34,2.51,0,3.74c4.22-0.22,8.24-1.85,11.42-4.62
				c1.03-0.73,1.7-1.86,1.86-3.12c0.01-0.22-0.03-0.43-0.14-0.62c-0.19-0.24-0.44-0.43-0.73-0.55c-3.02-1.63-3.92-5.42-5.45-8.5
				c-1.33-2.71-3.3-5.05-4.95-7.57c-3.58-5.42-6.03-11.98-11.45-15.56c-1.19-0.79-2.58-1.48-3.18-2.79
				c-0.33-0.73-0.37-1.56-0.63-2.31c-0.21-0.79-0.88-1.38-1.69-1.48c0.34-1.17,0.47-2.38,0.39-3.59c0.03-0.52-0.03-1.05-0.18-1.55
				c-0.21-0.54-0.48-1.06-0.8-1.54c-1.41-2.39-2.12-5.14-2.04-7.92c0.19-1.42,0.14-2.87-0.14-4.27c-0.22-0.69-0.6-1.32-0.86-1.98
				c-0.4-1.2-0.6-2.46-0.62-3.72l-0.3-4.76c-0.05-1.58-0.25-3.16-0.61-4.7c-0.99-3.69-1.98-19.17-5.37-20.91s-9.22,10.16-13.04,10.4
				c-1.69,0.07-3.36,0.39-4.95,0.96c-2.48,1.1-4.76,2.6-6.74,4.46l-7.02,5.9C672.45,244.48,670.99,245.57,669.44,246.5z"/>
			<path id="Path_649" class="st16" d="M660,160.64c-0.72,0.01-1.4,0.35-1.84,0.92c-0.46,0.75-0.72,1.6-0.77,2.48
				c-0.45,2.78-1.44,5.44-2.92,7.83"/>
			<path id="Path_650" class="st16" d="M662.52,162.62c-1,0.02-1.91,0.57-2.4,1.44c-0.33,0.78-0.53,1.6-0.6,2.45
				c-0.42,1.87-1.24,3.62-2.4,5.14"/>
			<path id="Path_651" class="st17" d="M780.19,259.4v-6.15c0-9.43-7.64-17.07-17.07-17.07H520.28c-9.43,0-17.07,7.64-17.07,17.07
				v11.34L780.19,259.4z"/>
			<path id="Path_652" class="st18" d="M587.84,228.98c0,0-0.69,43,6.93,57.15c7.62,14.15,10.89,75.7,10.89,75.7
				s79.93,8.27,135.62-9.9c55.7-18.17,174.21-25.6,174.21-25.6l-19.97-134.61c0,0-98.66-6.33-154.79,20.44
				S587.84,228.98,587.84,228.98z"/>
			<path id="Path_653" class="st16" d="M587.84,228.98c0,0-0.69,43,6.93,57.15c7.62,14.15,10.89,75.7,10.89,75.7
				s79.93,8.27,135.62-9.9c55.7-18.17,174.21-25.6,174.21-25.6l-19.97-134.61c0,0-98.66-6.33-154.79,20.44
				S587.84,228.98,587.84,228.98z"/>
			<path id="Path_654" class="st18" d="M605.53,244.69c0,0-2.5,35.48,3.77,46.82c6.27,11.34,6.57,61.95,6.57,61.95
				s71.93,3.34,123.1-14.08c51.17-17.42,158.68-28.71,158.68-28.71l-12.22-110.08c0,0-88.97-0.92-140.89,23.6
				S605.53,244.69,605.53,244.69z"/>
			
				<ellipse id="Ellipse_77" transform="matrix(0.9923 -0.1236 0.1236 0.9923 -28.879 93.4596)" class="st16" cx="738.8" cy="279.48" rx="18.67" ry="40.05"/>
			<path id="Path_655" class="st19" d="M841.43,126.15c0,0-95.85,24.26-141.05,66.96s-140.35,62.92-140.35,62.92
				s12.54,41.14,24.13,52.27c11.6,11.13,33.59,68.72,33.59,68.72s78.6-16.66,126.03-51.06c47.43-34.4,157.96-77.84,157.96-77.84
				L841.43,126.15z"/>
			<path id="Path_656" class="st18" d="M558.58,249.87c0,0,12.53,41.14,24.11,52.27c11.59,11.13,33.59,68.71,33.59,68.71
				s78.61-16.66,126.05-51.06c47.43-34.4,157.96-77.83,157.96-77.83L839.98,120c0,0-95.85,24.26-141.05,66.96
				C653.73,229.66,558.58,249.87,558.58,249.87z"/>
			<path id="Path_657" class="st16" d="M558.58,249.87c0,0,12.53,41.14,24.11,52.27c11.59,11.13,33.59,68.71,33.59,68.71
				s78.61-16.66,126.05-51.06c47.43-34.4,157.96-77.83,157.96-77.83L839.98,120c0,0-95.85,24.26-141.05,66.96
				C653.73,229.66,558.58,249.87,558.58,249.87z"/>
			<path id="Path_658" class="st18" d="M580.22,259.4c0,0,8.51,34.54,17.96,43.4s25.25,56.93,25.25,56.93s69.48-18.9,112.83-51.18
				c43.35-32.28,142.23-75.98,142.23-75.98l-45.4-101.05c0,0-84.95,26.42-126.85,65.69S580.22,259.4,580.22,259.4z"/>
			
				<ellipse id="Ellipse_78" transform="matrix(0.9065 -0.4221 0.4221 0.9065 -39.128 326.5127)" class="st16" cx="717.75" cy="251.61" rx="18.67" ry="40.05"/>
			<path id="Path_659" class="st16" d="M786.74,265.44v170.8c0,8.16-6.61,14.77-14.77,14.77c0,0,0,0-0.01,0H517.99
				c-8.15,0-14.76-6.61-14.76-14.77V248.22c7.28,2.7,7.28,2.7,14.76,2.48h253.98C780.11,250.7,786.72,257.29,786.74,265.44z"/>
			<path id="Path_660" class="st20" d="M786.74,267.61v170.8c0,8.16-6.62,14.77-14.77,14.77H517.99c-8.15,0-14.76-6.61-14.76-14.77
				V250.39c7.28,2.7,7.28,2.7,14.76,2.48h253.98C780.12,252.87,786.73,259.46,786.74,267.61z"/>
			<path id="Path_661" class="st16" d="M786.02,330.76v54.62h-52.97c-15.08,0-27.31-12.23-27.31-27.31s12.23-27.31,27.31-27.31
				L786.02,330.76z"/>
			<path id="Path_662" class="st17" d="M786.74,329.3v54.63h-52.97c-15.08,0-27.31-12.23-27.31-27.31s12.23-27.31,27.31-27.31
				L786.74,329.3z"/>
			<circle id="Ellipse_79" class="st16" cx="736.31" cy="358.07" r="10.65"/>
			<circle id="Ellipse_80" class="st11" cx="737.03" cy="356.63" r="10.65"/>
		</g>
	</g>
</g>
</svg>
