<?xml version="1.0" encoding="utf-8"?>
<!-- Generator: Adobe Illustrator 23.0.4, SVG Export Plug-In . SVG Version: 6.00 Build 0)  -->
<svg version="1.1" id="Layer_1" xmlns="http://www.w3.org/2000/svg" xmlns:xlink="http://www.w3.org/1999/xlink" x="0px" y="0px"
	 viewBox="0 0 1920 1080" style="enable-background:new 0 0 1920 1080;" xml:space="preserve">
<style type="text/css">
	.st0{opacity:0.1;fill:#20209E;enable-background:new    ;}
	.st1{opacity:0.9;fill:#96B7FE;enable-background:new    ;}
	.st2{opacity:0.1;enable-background:new    ;}
	.st3{fill:#20209E;}
	.st4{opacity:0.3;fill:#20209E;enable-background:new    ;}
	.st5{opacity:0.2;fill:#FFFFFF;enable-background:new    ;}
	.st6{fill:#1D1D8E;}
	.st7{fill:url(#Path_17_1_);}
	.st8{fill:#1D2366;}
	.st9{fill:#CF6F80;}
	.st10{fill:#C7DAF5;}
	.st11{fill:#FFFFFF;}
	.st12{opacity:0.03;enable-background:new    ;}
	.st13{fill:#FFB0B1;}
	.st14{fill:#DCE7FF;}
	.st15{fill:#591D4B;}
	.st16{fill:#BE8B87;}
	.st17{opacity:0.1;fill:#FFFFFF;enable-background:new    ;}
	.st18{fill:#EFC8C4;}
	.st19{fill:#727A9C;}
	.st20{opacity:0.9;fill:none;stroke:#000000;stroke-width:2;enable-background:new    ;}
</style>
<g id="undraw_science_fqhl" transform="translate(-55.159)">
	<ellipse id="Ellipse_4" class="st0" cx="1067.8" cy="779.83" rx="72.81" ry="11.36"/>
	<ellipse id="Ellipse_5" class="st0" cx="837.4" cy="812.55" rx="81.81" ry="8.21"/>
	<ellipse id="Ellipse_6" class="st0" cx="589.53" cy="808.78" rx="62.1" ry="3.83"/>
	<path id="Path_4" class="st0" d="M699.79,234.01c23.03-20.5,59.2-24.71,92.1-23.07c103.37,5.13,196.68,55.04,277.4,111.5
		c29.22,20.43,57.99,42.46,76.96,70.6c38.64,57.28,27.16,136.64-26.53,183.84c-18.27,16.05-40.41,28.39-63.15,39.28
		c-40.42,19.41-84.04,34.98-129.91,39.43c-32.72,3.15-65.84,0.59-98.36-3.83c-90.87-12.33-180.07-39.59-254.83-86.19
		c-32.79-20.5-63.7-45.9-77.22-78.98c-13.52-33.08-4.86-75,28.62-94.58c13.85-8.1,30.41-11.76,46.61-15.19
		c23.86-5.05,48.1-10.04,69.64-20.32c22.24-10.61,48.57-31.14,44.16-54.63C680.58,276.65,676.78,254.51,699.79,234.01z"/>
	<path id="Path_5" class="st1" d="M890.66,515.94V365.38h20.5v-44.95H764.25v44.95h20.5v150.57
		c-77.09,29.24-115.88,115.45-86.63,192.54s115.45,115.88,192.54,86.63s115.88-115.45,86.63-192.54
		c-15.15-39.93-46.67-71.46-86.6-86.62L890.66,515.94z"/>
	<path id="Path_812" class="st2" d="M784.72,364.91h105.94v2.03l-105.94,3.27V364.91z"/>
	<path id="Path_6" class="st3" d="M754.2,651.51c0,0,89.9-1.58,134.84-24.08s70.63-2.41,68.22,11.24s-15.24,40.12-66.61,43.37
		S754.2,651.51,754.2,651.51z"/>
	<path id="Path_7" class="st2" d="M754.2,651.51c0,0,89.9-1.58,134.84-24.08s70.63-2.41,68.22,11.24s-15.24,40.12-66.61,43.37
		S754.2,651.51,754.2,651.51z"/>
	<path id="Path_8" class="st3" d="M715.7,637.08c0,0-9.6,133.23,116.36,135.63s125.2-134.06,125.2-134.06s-46.53,50.55-156.5,8.82
		C800.77,647.52,743.79,632.27,715.7,637.08z"/>
	<path id="Path_9" class="st2" d="M956.86,639.14c-2.52,30.69-18.83,126.76-124.74,124.73c-103.82-1.96-115.58-92.73-116.5-124.66
		c-0.58,17.14-0.06,131.26,116.48,133.49c126,2.37,125.2-134.06,125.2-134.06S957.14,638.85,956.86,639.14z"/>
	<circle id="Ellipse_7" class="st4" cx="832.83" cy="579.6" r="16.35"/>
	<circle id="Ellipse_8" class="st4" cx="842.17" cy="514.2" r="10.12"/>
	<circle id="Ellipse_9" class="st4" cx="819.59" cy="455.81" r="10.12"/>
	<path id="Path_10" class="st5" d="M732.91,592.21c-0.87,6.89-0.69,15.52,5.46,18.74c-5.16-2.7,16.01-33.28,13-39.52
		C744.95,558.09,733.7,585.8,732.91,592.21z"/>
	<circle id="Ellipse_10" class="st4" cx="811.42" cy="274.04" r="16.35"/>
	<circle id="Ellipse_11" class="st4" cx="860.46" cy="246.01" r="12.15"/>
	<circle id="Ellipse_12" class="st4" cx="825.43" cy="213.32" r="6.32"/>
	<path id="Path_11" class="st1" d="M656.42,414.54H524.31v39.18h20.13v305.7c-0.01,25.37,20.54,45.94,45.91,45.96
		c25.37,0.01,45.94-20.54,45.96-45.91c0-0.02,0-0.03,0-0.05v-305.7h20.12L656.42,414.54z"/>
	<path id="Path_12" class="st6" d="M575.04,522.98c0,0,32.69-11.68,41.79-3.38c0,0-13.24,19.46-25.43,18.68
		C579.22,537.51,575.04,522.98,575.04,522.98z"/>
	<path id="Path_14" class="st3" d="M616.82,519.64V741.5c0,15.48-12.55,28.03-28.03,28.03l0,0l0,0c-15.48,0-28.02-12.55-28.02-28.03
		V519.64c0,0,13.49-3.64,26.2,4.16S616.82,519.64,616.82,519.64z"/>
	<path id="Path_777" class="st2" d="M544.42,453.47h91.86v4.07l-91.86-2.27V453.47z"/>
	<path id="Path_15" class="st2" d="M588.8,756.04L588.8,756.04c-15.48,0-28.03-12.55-28.03-28.03c0,0,0,0,0-0.01v14.01
		c0,15.48,12.55,28.03,28.03,28.03l0,0c15.48,0,28.03-12.55,28.03-28.03v-14.01C616.83,743.48,604.28,756.03,588.8,756.04
		C588.8,756.04,588.8,756.04,588.8,756.04z"/>
	<circle id="Ellipse_13" class="st4" cx="588.8" cy="492.14" r="5.71"/>
	<circle id="Ellipse_14" class="st4" cx="607.49" cy="471.89" r="3.63"/>
	<circle id="Ellipse_15" class="st4" cx="582.05" cy="464.63" r="3.63"/>
	<path id="Path_16" class="st5" d="M551.54,564.96c-0.87,6.89-0.69,15.52,5.46,18.74c-5.17-2.7,16.01-33.27,13-39.52
		C563.56,530.86,552.33,558.57,551.54,564.96z"/>
	<circle id="Ellipse_16" class="st4" cx="600.65" cy="376.15" r="13.87"/>
	<circle id="Ellipse_17" class="st4" cx="559.04" cy="352.36" r="10.31"/>
	<circle id="Ellipse_18" class="st4" cx="588.76" cy="324.62" r="5.36"/>
	
		<linearGradient id="Path_17_1_" gradientUnits="userSpaceOnUse" x1="55.9087" y1="1080.068" x2="55.9087" y2="1081.068" gradientTransform="matrix(173.2719 0 0 -411.9526 -8626.1807 445716.2812)">
		<stop  offset="0" style="stop-color:#808080;stop-opacity:0.251"/>
		<stop  offset="0.54" style="stop-color:#808080;stop-opacity:0.122"/>
		<stop  offset="1" style="stop-color:#808080;stop-opacity:0.102"/>
	</linearGradient>
	<path id="Path_17" class="st7" d="M1139.06,562.89c0,0-12.1-60.2-7.48-67.69c0,0,0.17-6.96-0.11-15.83v-1.02
		c0.81,0.55,1.66,1.05,2.54,1.48c4.27,2.2,9.17,2.83,13.85,1.79l-3.68-4.08c-0.97-0.89-1.66-2.04-1.99-3.32
		c-0.05-1.24,0.22-2.48,0.79-3.59c3.48-8.79,3.69-19.86-3.04-26.57c-5.66-5.65-7.05-12.93-13.17-18.08
		c-4.49-3.78-6.96-9.31-9.3-14.65c-2.1-4.47-3.8-9.11-5.09-13.88c-0.88-3.75-1.23-7.62-2.45-11.28c-1.21-3.66-3.47-7.21-7.01-8.85
		c-1.31-0.46-2.59-1.02-3.81-1.69c-1.51-1.02-2.42-2.67-3.51-4.12c-5.52-7.34-24.13-3.02-32.93-0.04c-2.39,0.75-4.6,1.97-6.51,3.6
		l0.08-0.13l0.22-0.32c-0.96,0.78-1.79,1.7-2.46,2.74c-1.29,2.04-1.82,4.42-2.89,6.57c-1.29,2.6-8.47,9.86-5.39,12.79
		c0.21,0.2,0.45,0.36,0.72,0.47c1.15,0.47,2.41,0.6,3.64,0.36c-0.05,0.1-0.09,0.2-0.13,0.31c-1.05,2.58-1.58,5.34-1.58,8.13
		c0.11,12.15,10.04,21.91,22.19,21.8c2.31,0,4.6-0.35,6.8-1.04c0.06,0.28,0.1,0.55,0.15,0.83c-0.01,0.12,0.01,0.23,0.06,0.34l0,0
		l-0.39,0.54l-0.06-0.1l-11.51,16.09c-1.76,1.23-11.89,8.56-12.44,14.06c-0.6,6.02-1.2,13.07-1.2,13.07l-0.08,1.51
		c-1.02,0.85-2.35,1.21-3.66,0.99c-3.59-0.59-3.59,13.22-3.59,13.22s-2.37,2.2-4.03,0.29c-1.66-1.91-5.98,4.55-5.98,4.55l-27.2,1.17
		h-0.62l-1.47-4.54c-0.33-0.98-1.38-1.51-2.37-1.21c-0.12,0.03-0.23,0.08-0.33,0.13l-0.09,0.06c-0.07,0.04-0.13,0.08-0.19,0.13
		c-0.04,0.02-0.07,0.05-0.1,0.09c-0.05,0.05-0.1,0.1-0.15,0.15c-0.03,0.03-0.05,0.07-0.08,0.1l-0.05,0.05l0,0
		c-0.34,0.47-0.44,1.08-0.27,1.64l1.26,3.9c-5.24,1.06-10.61,4.03-6.24,12.23l-22.17-4.09l7.18,6.02l37.06,7.65
		c-0.49,0.88-0.17,2.15,1.36,3.94c6.58,7.74,18.62,9.84,23.45,10.39c1.27,2.85,2.86,5.54,4.73,8.04l-0.43,7.71
		c0,0-12.24,58.82-14.49,61.81c1.11-1.29,2.13-2.66,3.04-4.1c-3.56,12.09-8.52,28.63-9.83,31.11c-2.1,3.94-4.04,19.97-1.65,21
		c0.75,0.32,2.82,0.17,5.81-0.06v1.33l-0.14,50.27c0,0,0.6,30.84-1.05,33.77c-1.65,2.93-2.09,9.1-2.09,9.1s-6.61,12.17-11.83,17.06
		l-0.12,0.1l-0.17-1.15c0,0-6.31,7.93-20.17,7.49c0,0-8.37,5.43,4.04,5.72s28.24-0.44,28.24-0.44s11.04-16.88,20.32-14.68v12.78
		h2.84v-12.88c2.66-1.75,4.48-4.52,5.05-7.66c0.5-3.25-0.76-6.51-3.3-8.59c-1.14-1.03-1.79-2.49-1.81-4.02l-0.1,0.09
		c-0.02-0.26-0.05-0.53-0.1-0.79c-0.79-6.61-1.82-20.2,1.77-30.28c4.93-13.81,6.43-33.03,2.84-44.49c-1.16-3.66-2.1-7.38-2.84-11.14
		c-0.09-0.48-0.17-0.93-0.24-1.36c2.46,0.33,4.89,0.83,7.28,1.49c8.33,2.29,26.52,2.71,42.05,2.59c0.04,0.43,0.09,0.87,0.13,1.32
		c0.28,3.1,0.87,6.16,1.75,9.15c1.94,5.88,2.84,31.72,2.84,31.72s2.52,21.25,1.14,29.91c-0.79,4.81-1.45,9.64-1.89,14.49v0.09
		c0,0-4.12,11.74-7.1,18.14c-0.08,0.17-0.15,0.32-0.23,0.48c-0.81,0.07-1.6,0.25-2.37,0.51c0,0-4.03,8.08-8.07,9.4
		s-2.69,5.72,6.43,4.11c9.12-1.62,22.87-2.93,22.87-2.93l0.6-8.22l2.8-3.5l-0.71,8.2l2.99-0.58l-0.39-9.98l4.58-5.73
		c0,0,5.52-4.92-2.69-14.6v0.2c-0.09-0.14-0.17-0.28-0.27-0.42v-0.05c-1.36-2.11-2.44-6.05-0.46-13.03
		c3.59-12.62,5.68-24.08,5.68-24.08s8.02-30.68-1.62-45.21h0.43c-0.99-2.04-1.69-4.21-2.08-6.45c-0.05-0.27-0.09-0.54-0.13-0.79
		c7.1-0.41,14.14-1.7,19.84-4.48C1145.33,647.33,1141.9,574.49,1139.06,562.89z M1048.5,512.11v0.14l-1.47,0.07L1048.5,512.11z
		 M1043.48,512.81c-0.24,0.05-0.47,0.16-0.66,0.32c-0.63,0.89-1.02,1.93-1.15,3.01l-2.29-0.52c0,0-1.58-0.34-3.94-0.72l-1.1-1.1
		C1037.39,513.52,1040.51,513.17,1043.48,512.81L1043.48,512.81z"/>
	<path id="Path_18" class="st8" d="M1119.15,762.12l-0.88,10.39l2.93-0.59l-0.44-11.26L1119.15,762.12z"/>
	<path id="Path_19" class="st9" d="M1052.42,712.81c-3.53,10.04-2.52,23.59-1.73,30.18c0.29,2.44,0.56,3.94,0.56,3.94
		s-5.27,12-5.71,12.44c-0.44,0.44-15.52,9.64-15.52,9.64l-10.53,6.15c0,0-10.68-4.68-5.52-6.31c1.05-0.42,1.99-1.06,2.76-1.89
		c5.11-4.87,11.58-16.99,11.58-16.99s0.43-6.14,2.04-9.07c1.61-2.92,1.03-33.66,1.03-33.66l0.13-50.1v-6.53l20.04,0.15
		c0.13,2.22,0.42,4.42,0.87,6.6c0.72,3.75,1.65,7.46,2.79,11.1C1058.71,679.9,1057.25,699.05,1052.42,712.81z"/>
	<path id="Path_20" class="st2" d="M1051.25,746.93c0,0-5.27,12-5.71,12.44c-0.44,0.44-15.51,9.64-15.51,9.64l-10.53,6.14
		c0,0-10.68-4.68-5.52-6.31c1.05-0.42,1.99-1.06,2.76-1.89l0.46,3.2l3.52-0.15l29.99-27.02
		C1050.98,745.42,1051.25,746.93,1051.25,746.93z"/>
	<path id="Path_21" class="st8" d="M1050.89,743.68l-30.22,27.22l-3.52,0.14l-0.73-5.12c0,0-6.15,7.89-19.76,7.46
		c0,0-8.19,5.42,3.94,5.71s27.66-0.44,27.66-0.44s10.83-16.83,19.9-14.63v12.73h2.78v-12.88c2.62-1.76,4.4-4.52,4.94-7.63
		c0.49-3.22-0.73-6.47-3.23-8.56C1051.54,746.65,1050.9,745.2,1050.89,743.68L1050.89,743.68z"/>
	<path id="Path_22" class="st9" d="M1121.93,728.46c-1.95,6.96-0.88,10.88,0.44,12.99v0.05c1.72,2.61,2.92,5.52,3.52,8.59l0.13,0.66
		l-13.75,20.05l-7.46,2.93c0,0-12-4.09-9.81-5.27c0.55-0.29,1.41-1.81,2.37-3.94c2.94-6.31,6.98-18.03,6.98-18.03v-0.1
		c0.42-4.83,1.1-9.64,1.84-14.44c1.34-8.62-1.12-29.8-1.12-29.8s-0.88-25.75-2.78-31.61c-0.86-2.98-1.43-6.03-1.71-9.12
		c-0.39-3.68-0.48-6.69-0.48-6.69s7.89-10.98,22.39,0.88c1.15,0.95,2.17,2.06,3.02,3.28c10.01,14.19,1.96,45.59,1.96,45.59
		S1125.44,715.89,1121.93,728.46z"/>
	<path id="Path_23" class="st2" d="M1126.02,750.71l-13.75,20.05l-7.46,2.93c0,0-12-4.09-9.81-5.27c0.55-0.29,1.41-1.81,2.37-3.94
		c5.08,0,7.71,4.79,7.71,4.79l6.43-1.02c0,0,8.49-16.69,10.39-17.7s0.29-7.62,0.29-7.62v-1.68l0.15,0.18v0.05
		c1.73,2.61,2.94,5.53,3.54,8.61L1126.02,750.71z"/>
	<path id="Path_24" class="st8" d="M1105.54,769.73c0,0-3.66-6.73-10.68-4.24c0,0-3.94,8.05-7.89,9.37s-2.63,5.7,6.31,4.09
		s22.39-2.93,22.39-2.93l0.58-8.19l9.07-11.56c0,0,5.42-4.9-2.63-14.56v1.68c0,0,1.58,6.59-0.29,7.61s-10.39,17.7-10.39,17.7
		L1105.54,769.73z"/>
	<path id="Path_25" class="st2" d="M1051.54,650.77c0.13,2.22,0.42,4.42,0.87,6.6c-6.94-0.87-13.97-0.94-20.93-0.22v-6.53
		L1051.54,650.77z"/>
	<path id="Path_26" class="st2" d="M1126.31,660.72c0,0-11.73,0.57-25.71,0.69c-0.39-3.68-0.48-6.69-0.48-6.69
		s7.89-10.98,22.39,0.88c1.15,0.95,2.17,2.06,3.02,3.29C1125.76,659.5,1126.02,660.12,1126.31,660.72z"/>
	<path id="Path_27" class="st8" d="M1126.32,659.4c0,0-51.36,2.48-67.03-1.9c-15.67-4.38-31.16-0.59-33.51-1.62
		c-2.34-1.03-0.43-16.97,1.58-20.92c2.01-3.95,13.32-43.9,13.32-43.9l10.83-56.48l11.42-3.15l0.79-0.22l19.88-5.52l14.58-4.02
		c0,0,28.97,113.11,26.48,121.44c-0.9,3.2-1.05,6.56-0.42,9.82C1124.62,655.16,1125.32,657.35,1126.32,659.4z"/>
	<path id="Path_28" class="st10" d="M1013.79,495.95c0,0-10.25,10.98-2.49,17.12c7.76,6.14,12.88,0.59,12.88,0.59L1013.79,495.95z"
		/>
	<path id="Path_29" class="st2" d="M1013.79,495.95c0,0-10.25,10.98-2.49,17.12c7.76,6.14,12.88,0.59,12.88,0.59L1013.79,495.95z"/>
	<path id="Path_30" class="st9" d="M1096.69,423.67c0,0-1.2,1.14-3.01,2.83c-2.58,2.4-6.4,5.93-9.79,8.89
		c-4.73,4.08-8.56,7.1-7.18,4.52s1.12-7.01,0.43-11.18l-0.14-0.83c-0.57-3.06-1.33-6.09-2.27-9.06c0,0,7.58-9.79,11.77-13.66
		c1.58-1.44,2.66-2.06,2.71-1.05c0.08,1.37,1.11,4.37,2.37,7.62c0.05,0.1,0.09,0.2,0.13,0.29c0.85,2.18,1.81,4.46,2.65,6.41
		C1095.65,421.43,1096.69,423.67,1096.69,423.67z"/>
	<path id="Path_31" class="st2" d="M1091.7,412.04c-1.45,7.8-7.04,14.2-14.57,16.69c-0.58-3.35-1.39-6.65-2.41-9.89
		c0,0,14.27-18.44,14.49-14.71C1089.77,406.84,1090.61,409.49,1091.7,412.04z"/>
	<path id="Path_32" class="st2" d="M1075.73,433.65l1.84-2.59c0,0,1.22,7.46,5.72,4.17c4.5-3.29,4.73,24.76,4.73,24.76l-4.84,72.22
		l-34.9-2.09l0.99-34.89l3.94-17.56l9.77-25.57l5.85-8.45L1075.73,433.65z"/>
	<path id="Path_33" class="st8" d="M1088.01,460.43l-4.37,65.29l-0.46,6.92l-19.46-1.16l-0.79-0.05l-14.68-0.88l0.99-34.9
		l3.94-17.55l9.77-25.57l5.88-8.45l6.92-9.98l1.84-2.6c0,0,1.22,7.47,5.72,4.17l0.09-0.06l0,0
		C1087.8,432.77,1088.01,460.43,1088.01,460.43z"/>
	<path id="Path_34" class="st11" d="M1053.73,471.95c0,0-1.75,3.66-5.27,3.08c-3.52-0.58-3.51,13.17-3.51,13.17
		s-2.37,2.19-3.94,0.29c-1.58-1.9-5.85,4.53-5.85,4.53l-26.63,1.17c0,0,11.83,5.41,9.51,21.8c0,0,40.22-2.49,41.56-6.31
		C1060.94,505.87,1053.73,471.95,1053.73,471.95z"/>
	<path id="Path_36" class="st11" d="M976.33,502.82l7.03,6l57.8,12.14l-7.18-7.31L976.33,502.82z"/>
	<path id="Path_37" class="st11" d="M1075.83,435.95c-0.95,1.43-3.7,8.97-6,15.53c-1.91,5.46-3.51,10.25-3.51,10.25
		s-3.73,24.3-5.63,28.68s-0.88,21.53-0.88,21.53l-7.1,42.29c0,0-3.22,21.8-8.19,34.82c-4.87,12.78-10.39,18.8-10.54,18.98
		c2.2-2.97,14.19-61.6,14.19-61.6l3.94-73.9c0,0,0.58-7.02,1.18-13.02c0.59-6,12.44-14.19,12.44-14.19l11.45-16.28
		C1078.36,430.64,1077.59,433.32,1075.83,435.95z"/>
	<path id="Path_38" class="st9" d="M1045.97,530.92c0,0-16.83-0.73-25.02-10.54c-8.19-9.81,18.88-3.94,18.88-3.94l7.02,1.58
		L1045.97,530.92z"/>
	<path id="Path_39" class="st2" d="M1124.7,643.16c-0.9,3.2-1.05,6.56-0.42,9.82c-18.39,1.31-38.06-3.67-38.06-3.67
		c-3.66,3.37-13.32,8.34-13.32,8.34l-5.27-65.27c-3.36-8.79-4.68-54.88-4.68-54.88s0.3-2.41,0.79-6.02
		c-0.01-0.09,0.01-0.18,0.04-0.27c1.32-10.09,3.94-29.04,5.19-31.61c1.76-3.51-5.41-12.87-5.41-12.87l3.26-27.82l0.39-3.35
		c6.88-3.08,12.15-12.88,12.15-12.88l4.04-7.1l0,0c4.41-2.82,4.62,24.83,4.62,24.83l-4.37,65.29l14.58-4.02
		C1098.24,521.68,1127.19,634.81,1124.7,643.16z"/>
	<path id="Path_40" class="st11" d="M1143.58,647.69c-20.04,9.95-56.48,0.73-56.48,0.73c-3.66,3.37-13.32,8.34-13.32,8.34
		l-5.27-65.27c-3.36-8.78-4.68-54.87-4.68-54.87s4.24-34.39,5.99-37.9c0.51-1.02,0.27-2.55-0.34-4.19
		c-2.99-7.82-4.09-16.23-3.21-24.56l1.4-11.95l0.39-3.35c6.88-3.08,12.14-12.89,12.14-12.89l3.67-6.42l6.75-11.83l3.19-5.6
		l0.54,0.49l4.15,3.75c0,0,1.76,1.45,4.39,3.68c5.74,4.83,15.66,13.35,20.77,18.55c4.5,4.6,5.92,22.44,6.31,35.88
		c0.28,8.84,0.11,15.77,0.11,15.77c-4.54,7.46,7.31,67.46,7.31,67.46C1140.22,575.11,1143.58,647.69,1143.58,647.69z"/>
	<path id="Path_41" class="st12" d="M1105.11,441.66c0,0-13.76,26.2-12.14,36.14c1.62,9.94,6.14,21.22,3.94,23.85
		c-1.53,2.02-3.91,3.21-6.44,3.22c-2.19,0.15-8.05,4.24-8.05,4.68c0,0.44-5.41,0.44-10.25,2.49c-3.89,1.46-7.91,2.54-12,3.22
		c0,0-13.9-0.44-15.22,0.88c-1.32,1.32-2.63,9.22,0.15,15.51c2.78,6.29,5.85,10.98,8.19,11.83c2.34,0.85,17.12-4.09,29.11-5.27
		c11.99-1.18,25.07-10.65,25.07-10.65s14.34-5.13,16.83-13.76c2.49-8.63-3.07-56.04-3.07-56.04S1116.94,435.66,1105.11,441.66z"/>
	<path id="Path_42" class="st12" d="M1103.34,439.47c0,0-13.75,26.19-12.14,36.14s6.14,21.22,3.94,23.85
		c-1.53,2.02-3.91,3.21-6.44,3.22c-2.19,0.15-8.04,4.24-8.04,4.68s-5.42,0.43-10.25,2.48c-3.89,1.46-7.9,2.54-12,3.22
		c0,0-13.9-0.43-15.22,0.88c-1.32,1.32-2.63,9.22,0.15,15.51c2.78,6.29,5.85,10.98,8.19,11.83c2.34,0.85,17.12-4.1,29.12-5.27
		c12-1.17,25.03-10.67,25.03-10.67s14.34-5.12,16.83-13.75c2.49-8.63-3.07-56.04-3.07-56.04S1115.2,433.47,1103.34,439.47z"/>
	<path id="Path_43" class="st11" d="M1104.66,440.34c0,0-13.74,26.2-12.17,36.11c1.58,9.91,6.14,21.22,3.94,23.85
		c-1.52,2.02-3.91,3.22-6.44,3.22c-2.19,0.15-8.04,4.24-8.04,4.68c0,0.44-5.42,0.44-10.25,2.49c-3.89,1.46-7.9,2.54-12,3.22
		c0,0-13.9-0.44-15.22,0.88c-1.32,1.32-2.63,9.22,0.15,15.51c2.78,6.29,5.85,10.98,8.19,11.83c2.34,0.85,17.12-4.09,29.12-5.27
		c12-1.17,25.02-10.67,25.02-10.67s14.34-5.13,16.83-13.76c2.49-8.63-3.08-56.04-3.08-56.04S1116.51,434.34,1104.66,440.34z"/>
	<path id="Path_44" class="st2" d="M1104.37,510.58c0,0-10.98-2.19-7.17,1.47s3.8,6.88,8.48,6.73
		C1110.37,518.63,1104.37,510.58,1104.37,510.58z"/>
	<path id="Path_45" class="st2" d="M1122.95,589.45c0,0-4.98,3.37,4.53,11.12S1122.95,589.45,1122.95,589.45z"/>
	<path id="Path_46" class="st2" d="M1113.43,617.11c0,0.44-1.75,16.09,4.83,20.04S1113.43,617.11,1113.43,617.11z"/>
	<path id="Path_47" class="st9" d="M1008.96,494.18c-5.3,0.18-16.77,1.81-10.83,12.89c5.26,9.81,14.09,3.26,19.04-1.73
		C1015.96,500.71,1013.02,496.71,1008.96,494.18L1008.96,494.18z"/>
	<path id="Path_48" class="st13" d="M1017.73,504.77"/>
	<path id="Path_49" class="st13" d="M1017.26,505.26c0.08-0.07,0.15-0.15,0.22-0.22C1017.41,505.11,1017.33,505.19,1017.26,505.26z"
		/>
	<path id="Path_50" class="st2" d="M1102.91,426.32c-5.63,3.85-10.35,7.1-11.27,7.77c-2.53,1.86-7.36,12.84-10.43,18.44
		c-2.48,4.51-10.5,5.67-13.52,5.95l0.36-3.32c6.88-3.07,12.14-12.88,12.14-12.88l13.61-23.85l4.68,4.24
		C1098.48,422.68,1100.28,424.09,1102.91,426.32z"/>
	<path id="Path_51" class="st14" d="M1102.91,425.88c-5.63,3.84-10.35,7.1-11.27,7.77c-2.53,1.87-7.36,12.84-10.43,18.44
		c-2.48,4.51-10.5,5.67-13.52,5.95l0.39-3.35c6.88-3.08,12.14-12.89,12.14-12.89l13.61-23.85l4.68,4.24
		C1098.52,422.2,1100.28,423.62,1102.91,425.88z"/>
	<path id="Path_52" class="st9" d="M1092.07,407.2c0,1.53-0.16,3.05-0.48,4.54c-0.59,2.79-1.72,5.43-3.34,7.78
		c-6.8,9.89-20.33,12.39-30.22,5.59c-9.89-6.8-12.4-20.33-5.59-30.22c6.8-9.89,20.33-12.39,30.22-5.59
		C1088.55,393.35,1092.07,400.05,1092.07,407.2z"/>
	<path id="Path_53" class="st2" d="M1130.01,480.32c-2.98-1.83-5.4-4.44-7.01-7.54c-1.22-2.42-2.03-5.2-4.13-6.93
		c-1.88-1.53-4.42-1.91-6.74-2.59c-7.7-2.28-14.19-9.32-14.41-17.35c-0.11-3.78,1.06-7.55,0.53-11.29c-0.3-2.12-1.15-4.13-2.45-5.83
		c-0.64-0.82-1.34-1.58-2.11-2.28c-1.03-0.97-2.1-1.91-3.04-2.94c-0.6-0.63-1.13-1.34-1.58-2.09c-0.35-0.62-0.63-1.27-0.84-1.95
		c-1.44-4.48-0.13-9.81-1.74-14.34c-0.01-0.09-0.04-0.17-0.09-0.24c-0.61-1.62-1.85-3.23-3.56-3.35c-1.71-0.13-3.2,1.3-4.84,1.95
		c-3.44,1.33-7.15-0.94-10.02-3.26s-6.1-4.97-9.75-4.45c-2.4,0.34-4.31,1.99-6.53,2.84c-0.51,0.19-1.04,0.34-1.58,0.44
		c4.47-11.14,17.13-16.54,28.27-12.07c8.24,3.31,13.63,11.29,13.63,20.17c0.01,1.53-0.16,3.05-0.48,4.54
		c0.05,0.1,0.09,0.2,0.13,0.29c0.85,2.18,1.81,4.46,2.65,6.41l4.15,3.75c0,0,1.76,1.45,4.39,3.68c5.74,4.83,15.66,13.35,20.77,18.55
		C1128.18,449.03,1129.6,466.88,1130.01,480.32z"/>
	<path id="Path_54" class="st15" d="M1051.49,385.29c1.05-2.14,1.58-4.53,2.82-6.55c1.84-2.96,5.05-4.81,8.34-5.95
		c8.61-2.96,26.81-7.28,32.24,0c1.07,1.44,1.96,3.1,3.44,4.12c1.2,0.65,2.45,1.21,3.73,1.67c3.47,1.63,5.68,5.17,6.87,8.82
		c1.18,3.64,1.53,7.51,2.36,11.24c1.25,4.75,2.92,9.37,4.98,13.82c2.28,5.32,4.73,10.83,9.1,14.6c6,5.13,7.35,12.4,12.89,18.02
		c6.6,6.69,6.39,17.72,2.99,26.47c-0.56,1.11-0.83,2.34-0.79,3.58c0.32,1.27,1,2.42,1.95,3.31l3.6,4.07
		c-8.84,1.91-17.88-2.27-22.15-10.25c-1.23-2.42-2.04-5.2-4.14-6.92c-1.88-1.54-4.41-1.91-6.74-2.6
		c-7.7-2.28-14.19-9.32-14.41-17.35c-0.11-3.77,1.06-7.55,0.54-11.29c-0.32-2.09-1.16-4.07-2.44-5.76c-2.03-2.63-5.06-4.42-6.7-7.31
		c-2.78-4.9-0.67-11.27-2.67-16.56c-0.61-1.58-1.84-3.23-3.56-3.35c-1.72-0.13-3.2,1.31-4.84,1.95c-3.44,1.33-7.15-0.94-10.01-3.26
		c-2.86-2.32-6.1-4.96-9.75-4.44c-2.41,0.34-4.31,1.98-6.54,2.83c-1.64,0.63-4.97,1.2-6.41-0.19
		C1043.17,395.12,1050.19,387.88,1051.49,385.29z"/>
	<path id="Path_55" class="st2" d="M1125.93,469.85c-1.22-2.42-2.03-5.2-4.13-6.93c-1.88-1.54-4.42-1.91-6.74-2.59
		c-7.7-2.28-14.19-9.32-14.42-17.35c-0.12-3.78,1.07-7.55,0.53-11.29c-0.3-2.12-1.15-4.13-2.45-5.83c-2.02-2.63-5.06-4.43-6.7-7.32
		c-2.78-4.9-0.67-11.27-2.67-16.56c-0.61-1.58-1.84-3.23-3.56-3.35c-1.72-0.13-3.2,1.3-4.84,1.94c-3.44,1.34-7.15-0.93-10.01-3.25
		c-2.86-2.32-6.1-4.96-9.76-4.45c-2.37,0.34-4.31,1.98-6.53,2.84c-1.64,0.63-4.97,1.2-6.41-0.19c-3.02-2.92,4.01-10.16,5.28-12.74
		c1.05-2.14,1.58-4.53,2.82-6.55l0.21-0.33c-0.93,0.79-1.73,1.71-2.37,2.74c-1.26,2.02-1.78,4.41-2.82,6.55
		c-1.27,2.59-8.3,9.83-5.28,12.74c1.43,1.39,4.73,0.79,6.41,0.19c2.22-0.85,4.12-2.49,6.53-2.84c3.64-0.51,6.88,2.13,9.75,4.45
		s6.58,4.59,10.01,3.26c1.65-0.64,3.08-2.08,4.84-1.95c1.76,0.13,2.96,1.73,3.57,3.35c2,5.26-0.11,11.63,2.66,16.56
		c1.64,2.88,4.68,4.68,6.7,7.31c1.31,1.7,2.15,3.71,2.45,5.83c0.54,3.74-0.65,7.52-0.53,11.29c0.24,8.04,6.71,15.08,14.42,17.35
		c2.33,0.69,4.87,1.06,6.74,2.6c2.1,1.72,2.9,4.5,4.13,6.92c4.27,7.98,13.31,12.17,22.16,10.26l-1.7-1.92
		C1136.6,480.7,1129.55,476.56,1125.93,469.85z"/>
	<path id="Path_56" class="st2" d="M1075.4,436.39c-0.96,1.43-3.71,8.97-6,15.52c-2.15-0.83-4.1-6.16-4.1-6.16l11.43-16.28
		C1077.92,431.08,1077.15,433.76,1075.4,436.39z"/>
	<path id="Path_57" class="st14" d="M1075.83,435.95c-0.95,1.43-3.7,8.97-6,15.53c-2.15-0.83-4.09-6.16-4.09-6.16l11.45-16.28
		C1078.36,430.64,1077.59,433.32,1075.83,435.95z"/>
	<path id="Path_58" class="st16" d="M1009.27,510.83l-6.35-19.99c-0.32-0.99,0.22-2.04,1.21-2.36c0,0,0,0,0.01,0l0,0
		c0.98-0.33,2.03,0.2,2.35,1.18c0,0.01,0.01,0.02,0.01,0.04l6.35,20.01l-0.63,4.19L1009.27,510.83z"/>
	<path id="Path_59" class="st17" d="M1003.52,489.07L1003.52,489.07c0.99-0.32,2.04,0.22,2.36,1.21c0,0,0,0.01,0,0.01l6.35,19.99
		l-0.48,3.15l0.47,0.48l0.63-4.19l-6.35-19.99c-0.3-0.98-1.35-1.53-2.33-1.23c-0.01,0-0.02,0.01-0.04,0.01l0,0
		c-0.4,0.12-0.74,0.38-0.97,0.72C1003.28,489.17,1003.39,489.11,1003.52,489.07L1003.52,489.07z"/>
	<path id="Path_60" class="st18" d="M1009.27,510.84l3.56-1.14l-0.52,3.44l-0.11,0.75l-1.04-1.09L1009.27,510.84z"/>
	<path id="Path_61" class="st19" d="M1011.16,512.8c0.07-0.08,0.14-0.14,0.23-0.19c0.1-0.06,0.24-0.06,0.34,0
		c0.05,0.06,0.09,0.13,0.13,0.2c0.1,0.17,0.27,0.28,0.46,0.31l-0.11,0.79L1011.16,512.8z"/>
	<path id="Path_62" class="st9" d="M1002.89,497.93c0,0,12.73-0.07,9.73,5.34s-7.68,6.07-7.68,6.07L1002.89,497.93z"/>
	<path id="Path_671" class="st20" d="M897.96,511.77V361.2h20.5v-44.95H771.56v44.95h20.5v150.57
		c-77.09,29.24-115.88,115.45-86.63,192.54s115.45,115.88,192.54,86.63s115.88-115.45,86.63-192.54
		c-15.15-39.93-46.67-71.46-86.6-86.62L897.96,511.77z"/>
	<path id="Path_672" class="st20" d="M651.2,408.28H519.09v39.18h20.13v305.7c-0.01,25.37,20.54,45.94,45.91,45.96
		c25.37,0.01,45.94-20.54,45.96-45.91c0-0.02,0-0.03,0-0.05v-305.7h20.12L651.2,408.28z"/>
</g>
</svg>
