<?xml version="1.0" encoding="utf-8"?>
<!-- Generator: Adobe Illustrator 23.0.4, SVG Export Plug-In . SVG Version: 6.00 Build 0)  -->
<svg version="1.1" id="Layer_1" xmlns="http://www.w3.org/2000/svg" xmlns:xlink="http://www.w3.org/1999/xlink" x="0px" y="0px"
	 viewBox="0 0 1920 1080" style="enable-background:new 0 0 1920 1080;" xml:space="preserve">
<style type="text/css">
	.st0{opacity:0.1;fill:#20209E;enable-background:new    ;}
	.st1{opacity:0.5;}
	.st2{fill:url(#Rectangle_309_1_);}
	.st3{fill:#F2F2F2;}
	.st4{fill:none;stroke:#000000;stroke-width:1.5;}
	.st5{fill:#E0E0E0;}
	.st6{opacity:0.7;fill:#20209E;enable-background:new    ;}
	.st7{fill:url(#Rectangle_320_1_);}
	.st8{fill:#F5F5F5;}
	.st9{fill:url(#Rectangle_322_1_);}
	.st10{fill:#FFFFFF;}
	.st11{clip-path:url(#SVGID_2_);}
	.st12{opacity:0.4;fill:#3F3D56;enable-background:new    ;}
	.st13{fill:url(#Rectangle_323_1_);}
	.st14{fill:url(#Rectangle_325_1_);}
	.st15{clip-path:url(#SVGID_4_);}
	.st16{opacity:0.4;fill:#BDBDBD;enable-background:new    ;}
	.st17{opacity:0.7;fill:#3AD29F;enable-background:new    ;}
	.st18{fill:url(#Rectangle_336_1_);}
	.st19{fill:#20209E;}
	.st20{fill:#3AD29F;}
	.st21{fill:#575A89;}
	.st22{fill:#3F3D56;}
	.st23{fill:url(#Path_665_1_);}
	.st24{fill:url(#Path_666_1_);}
</style>
<g id="Group_154" transform="translate(-110.24 -1909.689)">
	<path id="Path_775" class="st0" d="M1323.46,2723.28c-17.9,7.48-39.72,6.17-60.32,3.26l-3.46-0.51c-21.49-3.36-42.8-7.8-63.84-13.3
		c-11.31-2.87-22.56-5.89-33.81-8.96l-8.81-2.41c-11.44-3.13-22.9-6.27-34.38-9.43c-11.24-3.09-22.47-6.2-33.7-9.33
		c-14.38-4.01-28.74-8.09-43.08-12.22c-11.2-3.23-22.38-6.52-33.54-9.86c-14.3-4.28-28.56-8.67-42.79-13.17
		c-11.12-3.52-22.2-7.12-33.25-10.81c-14.17-4.73-28.27-9.63-42.32-14.7c-9.54-3.43-19.04-6.96-28.5-10.58l-4.31-1.66
		c-40.59-15.68-81.2-33.96-112.33-62.03l-0.84-0.76c-0.42-0.38-0.83-0.75-1.25-1.14c-5.69-5.23-10.94-10.93-15.67-17.03
		c-8.4-10.94-14.4-23-15.7-35.52c-2.03-19.64,7.83-38.01,21.42-52.45s30.87-25.95,46.66-38.63c4.62-3.72,9.14-7.66,13.48-11.79
		c27.17-25.92,46.96-59.47,37.74-95.27c-1.26-4.59-2.75-9.11-4.47-13.55c-2.7-7.24-5.49-14.5-6.59-21.94
		c-2.59-17.31,4.15-33.83,11.71-49.16c10.08-20.38,23.6-41.52,47.86-48.76c25.17-7.53,54.65,2.25,79.08,15.2
		c38,20.08,70.31,47.66,103.45,73.76c33.15,26.1,101.92-21.71,167.64-38.66c117.39-6.02,150.05,56.75,174.88,96.69
		c27.59,50.6,12.66,100.08,10,112.51c-11.58,31.98-44.08,51.25-74.74,71.83c-3.72,2.49-7.4,5.01-11.03,7.57
		c-2.02,1.43-4.02,2.87-5.99,4.32l0,0c-3.46,2.57-6.84,5.19-10.11,7.88c-16.68,13.84-31.09,32.18-28.97,53.27
		c1.2,11.81,7.15,22.37,15.13,32.43c17.89,22.55,45.97,42.62,53.36,68.79C1358.45,2689.69,1346.19,2713.76,1323.46,2723.28z"/>
	<g id="Group_80" transform="translate(175.425 1953.017)">
		<g id="Group_71" transform="translate(121.118 102.305)" class="st1">
			
				<linearGradient id="Rectangle_309_1_" gradientUnits="userSpaceOnUse" x1="-184.7718" y1="934.5128" x2="-184.7718" y2="935.5128" gradientTransform="matrix(352.347 0 0 -473.474 65855.9531 443106.9375)">
				<stop  offset="0" style="stop-color:#808080;stop-opacity:0.251"/>
				<stop  offset="0.54" style="stop-color:#808080;stop-opacity:0.122"/>
				<stop  offset="1" style="stop-color:#808080;stop-opacity:0.102"/>
			</linearGradient>
			<rect id="Rectangle_309" x="576" y="166" class="st2" width="352.35" height="473.47"/>
		</g>
		<rect id="Rectangle_310" x="701.71" y="274.73" class="st3" width="341.34" height="456.96"/>
		<rect id="Rectangle_346" x="681.71" y="255.73" class="st4" width="341.34" height="456.96"/>
		<rect id="Rectangle_311" x="728.32" y="294" class="st5" width="117.45" height="3.67"/>
		<rect id="Rectangle_312" x="728.32" y="310.51" class="st6" width="117.45" height="3.67"/>
		<rect id="Rectangle_313" x="863.2" y="294" class="st5" width="117.45" height="3.67"/>
		<rect id="Rectangle_314" x="881.55" y="398.61" class="st5" width="117.45" height="3.67"/>
		<rect id="Rectangle_315" x="884.31" y="408.7" class="st5" width="117.45" height="3.67"/>
		<rect id="Rectangle_316" x="889.82" y="418.79" class="st5" width="117.45" height="3.67"/>
		<rect id="Rectangle_317" x="881.55" y="561.02" class="st5" width="117.45" height="3.67"/>
		<rect id="Rectangle_318" x="884.31" y="571.11" class="st5" width="117.45" height="3.67"/>
		<rect id="Rectangle_319" x="889.82" y="581.2" class="st5" width="117.45" height="3.67"/>
		<g id="Group_72" transform="translate(153.239 194.98)" class="st1">
			
				<linearGradient id="Rectangle_320_1_" gradientUnits="userSpaceOnUse" x1="-216.8358" y1="842.2369" x2="-216.8358" y2="843.2369" gradientTransform="matrix(124.788 0 0 -126.626 27696.9062 106941.7188)">
				<stop  offset="0" style="stop-color:#808080;stop-opacity:0.251"/>
				<stop  offset="0.54" style="stop-color:#808080;stop-opacity:0.122"/>
				<stop  offset="1" style="stop-color:#808080;stop-opacity:0.102"/>
			</linearGradient>
			<rect id="Rectangle_320" x="576" y="166" class="st7" width="124.79" height="126.63"/>
		</g>
		<rect id="Rectangle_321" x="730.02" y="363.74" class="st8" width="122.82" height="121.12"/>
		<g id="Group_73" transform="translate(158.354 205.077)" class="st1">
			
				<linearGradient id="Rectangle_322_1_" gradientUnits="userSpaceOnUse" x1="-221.943" y1="832.4694" x2="-221.943" y2="833.4694" gradientTransform="matrix(114.558 0 0 -78.91 26058.623 65935.0781)">
				<stop  offset="0" style="stop-color:#808080;stop-opacity:0.251"/>
				<stop  offset="0.54" style="stop-color:#808080;stop-opacity:0.122"/>
				<stop  offset="1" style="stop-color:#808080;stop-opacity:0.102"/>
			</linearGradient>
			<rect id="Rectangle_322" x="576" y="166" class="st9" width="114.56" height="78.91"/>
		</g>
		<rect id="_Rectangle_3" x="735.14" y="372" class="st10" width="112.98" height="76.16"/>
		<g>
			<defs>
				<rect id="SVGID_1_" x="735.14" y="372" width="112.98" height="76.16"/>
			</defs>
			<clipPath id="SVGID_2_">
				<use xlink:href="#SVGID_1_"  style="overflow:visible;"/>
			</clipPath>
			<g id="Group_74" transform="translate(159.139 205.996)" class="st11">
				<path id="Path_663" class="st12" d="M566.42,239.41l28.45-44.05l11.93,19.27l25.69-26.6l22.02,26.6l19.27-39.45l49.55,78.91
					l-160.58-5.51L566.42,239.41z"/>
				<circle id="Ellipse_81" class="st12" cx="588.45" cy="177.01" r="8.26"/>
			</g>
		</g>
		<g id="Group_75" transform="translate(153.239 357.396)" class="st1">
			
				<linearGradient id="Rectangle_323_1_" gradientUnits="userSpaceOnUse" x1="-216.8358" y1="679.8209" x2="-216.8358" y2="680.8209" gradientTransform="matrix(124.788 0 0 -126.626 27696.9062 86375.625)">
				<stop  offset="0" style="stop-color:#808080;stop-opacity:0.251"/>
				<stop  offset="0.54" style="stop-color:#808080;stop-opacity:0.122"/>
				<stop  offset="1" style="stop-color:#808080;stop-opacity:0.102"/>
			</linearGradient>
			<rect id="Rectangle_323" x="576" y="166" class="st13" width="124.79" height="126.63"/>
		</g>
		<rect id="Rectangle_324" x="730.02" y="526.15" class="st8" width="122.82" height="121.12"/>
		<g id="Group_76" transform="translate(158.354 367.492)" class="st1">
			
				<linearGradient id="Rectangle_325_1_" gradientUnits="userSpaceOnUse" x1="-221.943" y1="670.0544" x2="-221.943" y2="671.0544" gradientTransform="matrix(114.558 0 0 -78.91 26058.623 53118.9062)">
				<stop  offset="0" style="stop-color:#808080;stop-opacity:0.251"/>
				<stop  offset="0.54" style="stop-color:#808080;stop-opacity:0.122"/>
				<stop  offset="1" style="stop-color:#808080;stop-opacity:0.102"/>
			</linearGradient>
			<rect id="Rectangle_325" x="576" y="166" class="st14" width="114.56" height="78.91"/>
		</g>
		<rect id="_Rectangle_4" x="735.14" y="534.4" class="st10" width="112.98" height="76.16"/>
		<g>
			<defs>
				<rect id="SVGID_3_" x="735.14" y="534.4" width="112.98" height="76.16"/>
			</defs>
			<clipPath id="SVGID_4_">
				<use xlink:href="#SVGID_3_"  style="overflow:visible;"/>
			</clipPath>
			<g id="Group_77" transform="translate(159.139 368.404)" class="st15">
				<path id="Path_664" class="st16" d="M566.42,239.41l28.45-44.05l11.93,19.27l25.69-26.61l22.02,26.61l19.27-39.46l49.55,78.91
					l-160.58-5.5L566.42,239.41z"/>
				<circle id="Ellipse_82" class="st16" cx="588.45" cy="177.02" r="8.26"/>
			</g>
		</g>
		<g id="Group_78" transform="translate(172.847 78.911)" class="st1">
			
				<rect id="Rectangle_326" x="569.2" y="267.36" transform="matrix(0.1949 -0.9808 0.9808 0.1949 213.817 1147.5631)" class="st3" width="473.47" height="352.35"/>
		</g>
		
			<rect id="Rectangle_327" x="738.76" y="338.8" transform="matrix(0.1949 -0.9808 0.9808 0.1949 279.0109 1358.8557)" class="st10" width="456.96" height="341.34"/>
		
			<rect id="Rectangle_328" x="981.22" y="181.92" transform="matrix(0.1949 -0.9808 0.9808 0.1949 494.2094 1208.1655)" class="st5" width="3.67" height="242.24"/>
		
			<rect id="Rectangle_329" x="913.61" y="522.12" transform="matrix(0.1949 -0.9808 0.9808 0.1949 106.1064 1415.7448)" class="st5" width="3.67" height="242.24"/>
		
			<rect id="Rectangle_330" x="882.49" y="564.97" transform="matrix(0.1949 -0.9808 0.9808 0.1949 66.0191 1397.5596)" class="st5" width="3.67" height="187.19"/>
		
			<rect id="Rectangle_331" x="820.78" y="632.96" transform="matrix(0.1949 -0.9808 0.9808 0.1949 7.2523 1344.4841)" class="st6" width="3.67" height="69.73"/>
		
			<rect id="Rectangle_332" x="917.69" y="251.38" transform="matrix(0.1949 -0.9808 0.9808 0.1949 434.3418 1153.0258)" class="st6" width="3.67" height="121.12"/>
		
			<rect id="Rectangle_333" x="961.29" y="232.92" transform="matrix(0.1949 -0.9808 0.9808 0.1949 439.8405 1220.0795)" class="st5" width="3.67" height="218.38"/>
		
			<rect id="Rectangle_334" x="876.17" y="320.11" transform="matrix(0.1949 -0.9808 0.9808 0.1949 366.7976 1140.3042)" class="st17" width="3.67" height="53.22"/>
		
			<rect id="Rectangle_335" x="964.76" y="264.72" transform="matrix(0.1949 -0.9808 0.9808 0.1949 399.7484 1258.693)" class="st5" width="3.67" height="242.24"/>
		<g id="Group_79" transform="translate(268.768 281.868)" class="st1">
			
				<linearGradient id="Rectangle_336_1_" gradientUnits="userSpaceOnUse" x1="-331.8935" y1="755.1562" x2="-331.8935" y2="755.7302" gradientTransform="matrix(24.3236 -122.3945 -213.2919 -42.3877 169870.4844 -8357.4307)">
				<stop  offset="0" style="stop-color:#808080;stop-opacity:0.251"/>
				<stop  offset="0.54" style="stop-color:#808080;stop-opacity:0.122"/>
				<stop  offset="1" style="stop-color:#808080;stop-opacity:0.102"/>
			</linearGradient>
			<polygon id="Rectangle_336" class="st18" points="576,288.39 600.32,166 813.62,208.39 789.29,330.78 			"/>
		</g>
		
			<rect id="Rectangle_337" x="902.68" y="422.45" transform="matrix(0.1949 -0.9808 0.9808 0.1949 256.2102 1371.7584)" class="st10" width="122.04" height="214.71"/>
		
			<rect id="Rectangle_338" x="960.65" y="285.43" transform="matrix(0.1949 -0.9808 0.9808 0.1949 376.1275 1271.3279)" class="st5" width="3.67" height="242.24"/>
		
			<rect id="Rectangle_339" x="849.01" y="502.56" transform="matrix(0.1949 -0.9808 0.9808 0.1949 213.3815 1291.6837)" class="st19" width="89.01" height="26.61"/>
		
			<rect id="Rectangle_340" x="907.62" y="526.26" transform="matrix(0.1949 -0.9808 0.9808 0.1949 225.5062 1353.8584)" class="st20" width="59.64" height="26.61"/>
		
			<rect id="Rectangle_341" x="965.51" y="549.06" transform="matrix(0.1949 -0.9808 0.9808 0.1949 238.6662 1415.4912)" class="st21" width="32.11" height="26.61"/>
		
			<rect id="Rectangle_342" x="999.01" y="542.16" transform="matrix(0.1949 -0.9808 0.9808 0.1949 285.6993 1458.9972)" class="st22" width="65.15" height="26.61"/>
		
			<linearGradient id="Path_665_1_" gradientUnits="userSpaceOnUse" x1="-63.6497" y1="1036.8889" x2="-63.6497" y2="1037.8889" gradientTransform="matrix(311.4246 0 0 -318.0817 20894.334 330536.8438)">
			<stop  offset="0" style="stop-color:#B3B3B3;stop-opacity:0.251"/>
			<stop  offset="0.54" style="stop-color:#B3B3B3;stop-opacity:0.102"/>
			<stop  offset="1" style="stop-color:#B3B3B3;stop-opacity:0.051"/>
		</linearGradient>
		<path id="Path_665" class="st23" d="M1127.14,441.01c-46.89-48.76-124.42-50.29-173.19-3.4c-0.71,0.68-1.42,1.38-2.11,2.08
			c-46.36,46.73-47.14,122.83-1.8,170.56c41.13,43.29,107.48,50.61,157.06,17.33l88.54,92.09c2.28,2.37,6.06,2.45,8.43,0.16
			l22.06-21.21c2.37-2.28,2.45-6.06,0.17-8.43l-88.52-92.09C1172.83,550.09,1168.34,483.85,1127.14,441.01L1127.14,441.01z
			 M1099.56,589.07c-34.88,33.53-90.34,32.44-123.87-2.44c-33.53-34.88-32.44-90.34,2.44-123.87
			c34.88-33.53,90.34-32.44,123.87,2.44C1135.53,500.08,1134.44,555.54,1099.56,589.07
			C1099.57,589.07,1099.56,589.07,1099.56,589.07z"/>
		
			<linearGradient id="Path_666_1_" gradientUnits="userSpaceOnUse" x1="-62.9415" y1="1041.1776" x2="-62.9415" y2="1042.1776" gradientTransform="matrix(14.7957 0 0 -15.314 1905.2252 16461.4805)">
			<stop  offset="0" style="stop-color:#000000;stop-opacity:0.122"/>
			<stop  offset="0.55" style="stop-color:#000000;stop-opacity:0.09"/>
			<stop  offset="1" style="stop-color:#000000;stop-opacity:0.02"/>
		</linearGradient>
		<path id="Path_666" class="st24" d="M973.96,501.55c-9.85,0-9.87,15.31,0,15.31S983.83,501.55,973.96,501.55z"/>
		
			<rect id="Rectangle_347" x="747.76" y="362.8" transform="matrix(0.1949 -0.9808 0.9808 0.1949 262.716 1387.0059)" class="st4" width="456.96" height="341.34"/>
		<path id="Path_668" class="st19" d="M1136.75,436.35c-46.89-48.76-124.42-50.29-173.19-3.4c-0.71,0.68-1.42,1.38-2.11,2.08
			c-46.36,46.73-47.14,122.83-1.8,170.56c41.13,43.29,107.49,50.61,157.06,17.32l88.53,92.1c2.28,2.37,6.06,2.45,8.43,0.16
			l22.06-21.21c2.37-2.28,2.45-6.06,0.17-8.43l-88.54-92.09C1182.4,545.44,1177.93,479.21,1136.75,436.35L1136.75,436.35z
			 M1109.17,584.36c-34.88,33.53-90.34,32.44-123.87-2.44c-33.53-34.88-32.44-90.34,2.44-123.87
			c34.88-33.53,90.33-32.44,123.87,2.43C1145.14,495.36,1144.05,550.82,1109.17,584.36
			C1109.17,584.36,1109.17,584.36,1109.17,584.36L1109.17,584.36z"/>
	</g>
</g>
</svg>
